<svg width="512" height="512" viewBox="0 0 512 512" fill="none" xmlns="http://www.w3.org/2000/svg">
	<g clip-path="url(#clip0)">
		<path d="M186.728 0C162.124 0 142.109 20.0152 142.109 44.6174V74.7141L152.103 180.402L142.109 296.851V496.682C142.109 504.961 148.821 511.672 157.099 511.672H216.356C224.635 511.672 231.347 504.961 231.347 496.682V44.6174C231.347 20.0152 211.332 0 186.728 0V0Z" fill="#B36B24" />
		<path d="M216.356 511.672C224.635 511.672 231.347 504.961 231.347 496.682V44.6174C231.347 20.0152 211.332 0 186.728 0V511.672H216.356Z" fill="#99481F" />
		<path d="M380.616 185.782L432.104 97.2387C435.424 91.5304 434.678 84.1751 429.855 79.2053C426.992 76.2551 422.972 74.7131 418.862 74.7131H142.108V296.85H418.862C422.972 296.85 426.991 295.308 429.855 292.358C434.678 287.388 435.424 280.032 432.104 274.324L380.616 185.782Z" fill="#FF4D4D" />
		<path d="M429.856 79.2053C426.993 76.2551 422.973 74.7131 418.863 74.7131H186.728V296.85H418.863C422.973 296.85 426.992 295.308 429.856 292.358C434.679 287.388 435.425 280.032 432.105 274.324L380.617 185.781L432.105 97.2377C435.424 91.5314 434.679 84.1761 429.856 79.2053V79.2053Z" fill="#CC2929" />
		<path d="M270.758 492.321V432.207C270.758 423.928 264.046 417.217 255.767 417.217H117.69C109.411 417.217 102.699 423.928 102.699 432.207V492.321H270.758Z" fill="#FF4D4D" />
		<path d="M255.767 417.217H186.728V492.321H270.758V432.207C270.758 423.928 264.046 417.217 255.767 417.217V417.217Z" fill="#CC2929" />
		<path d="M280.602 482.019H92.8535C84.5748 482.019 77.8631 488.731 77.8631 497.01C77.8631 505.288 84.5748 512 92.8535 512H280.602C288.881 512 295.593 505.288 295.593 497.01C295.593 488.731 288.881 482.019 280.602 482.019Z" fill="#FFA64D" />
		<path d="M280.602 482.019H186.727V512H280.602C288.881 512 295.593 505.288 295.593 497.01C295.593 488.731 288.881 482.019 280.602 482.019Z" fill="#ED8600" />
		<path d="M302.413 255.999L502.378 56.0335C515.204 43.2105 515.209 22.4475 502.379 9.6215C489.554 -3.2055 468.793 -3.2085 455.966 9.6205L256 209.587L56.0336 9.6215C43.2106 -3.2045 22.4466 -3.2085 9.62062 9.6195C-3.20638 22.4455 -3.20738 43.2055 9.62062 56.0325L209.585 255.999L9.61962 455.965C-3.17738 468.762 -3.17738 489.583 9.61962 502.378C22.4446 515.205 43.2066 515.207 56.0326 502.378L255.998 302.411L455.963 502.376C468.786 515.203 489.55 515.204 502.375 502.377C515.202 489.552 515.205 468.791 502.376 455.962L302.413 255.999Z" fill="#FF7976" />
		<path d="M302.413 255.999L502.378 56.0335C515.204 43.2105 515.209 22.4475 502.379 9.6215C489.554 -3.2055 468.793 -3.2085 455.966 9.6205L256 209.585V302.414L455.965 502.379C468.788 515.206 489.552 515.207 502.377 502.38C515.204 489.555 515.207 468.794 502.378 455.965L302.413 255.999Z" fill="#FF5752" />
	</g>
	<defs>
		<clipPath id="clip0">
			<rect width="512" height="512" fill="white" />
		</clipPath>
	</defs>
</svg>
