<svg id="Capa_1" enable-background="new 0 0 512.328 512.328" height="512" viewBox="0 0 512.328 512.328" width="512" xmlns="http://www.w3.org/2000/svg">
	<g>
		<path d="m186.848 0c-24.62 0-44.648 20.028-44.648 44.646v30.116l10 105.756-10 116.523v199.959c0 8.284 6.716 15 15 15h59.295c8.284 0 15-6.716 15-15v-452.354c0-24.618-20.028-44.646-44.647-44.646z" fill="#b36b24" />
		<path d="m216.495 512c8.284 0 15-6.716 15-15v-452.354c0-24.618-20.028-44.646-44.647-44.646v512z" fill="#99481f" />
		<path d="m380.86 185.901 51.521-88.6c3.322-5.712 2.575-13.072-2.251-18.045-2.864-2.952-6.887-4.495-11-4.495h-276.931v222.279h276.931c4.113 0 8.135-1.543 11-4.495 4.826-4.973 5.573-12.334 2.251-18.045z" fill="#ff4d4d" />
		<path d="m430.131 79.256c-2.864-2.952-6.887-4.495-11-4.495h-232.283v222.279h232.283c4.113 0 8.135-1.543 11-4.495 4.826-4.973 5.573-12.334 2.251-18.045l-51.521-88.6 51.521-88.6c3.321-5.71 2.575-13.07-2.251-18.044z" fill="#cc2929" />
		<path d="m270.931 492.636v-60.152c0-8.284-6.716-15-15-15h-138.166c-8.284 0-15 6.716-15 15v60.152z" fill="#ff4d4d" />
		<path d="m255.931 417.484h-69.083v75.152h84.083v-60.152c0-8.284-6.716-15-15-15z" fill="#cc2929" />
		<g>
			<path d="m280.782 482.328h-187.869c-8.284 0-15 6.716-15 15s6.716 15 15 15h187.869c8.284 0 15-6.716 15-15s-6.716-15-15-15z" fill="#ffa64d" />
			<path d="m280.782 482.328h-93.935v30h93.935c8.284 0 15-6.716 15-15s-6.716-15-15-15z" fill="#ed8600" />
		</g>
	</g>
</svg>
